<svg xmlns="http://www.w3.org/2000/svg" version="1.1" width="600" height="600">
<path d="M0 0 C4.485335 0.8439797 9.02601373 1.31791393 13.55664062 1.85302734 C17.02148438 2.38037109 17.02148438 2.38037109 20.4296875 3.26660156 C26.21161754 4.73427424 32.08152096 5.7038773 37.95507812 6.72802734 C39.803843 7.05316566 39.803843 7.05316566 41.68995667 7.38487244 C44.94934106 7.95710576 48.20919992 8.52653925 51.46923828 9.09503174 C53.45612469 9.44237117 55.44260735 9.79192796 57.42895508 10.14233398 C61.27046971 10.8197711 65.11265351 11.49327284 68.95507812 12.16552734 C70.71796425 12.47648094 70.71796425 12.47648094 72.51646423 12.79371643 C77.36635123 13.63638728 82.19146717 14.44136888 87.08813477 14.95629883 C89.92179575 15.26180867 92.30924523 15.64828147 95.02148438 16.38037109 C97.86517042 17.14771495 100.58921703 17.59919477 103.52148438 17.88037109 C107.14786604 18.22810632 110.48012224 18.96444798 113.99023438 19.91162109 C116.1715302 20.41499705 118.29381373 20.66675884 120.52148438 20.88037109 C124.14786604 21.22810632 127.48012224 21.96444798 130.99023438 22.91162109 C133.1715302 23.41499705 135.29381373 23.66675884 137.52148438 23.88037109 C141.14786604 24.22810632 144.48012224 24.96444798 147.99023438 25.91162109 C150.1715302 26.41499705 152.29381373 26.66675884 154.52148438 26.88037109 C158.14786604 27.22810632 161.48012224 27.96444798 164.99023438 28.91162109 C167.1715302 29.41499705 169.29381373 29.66675884 171.52148438 29.88037109 C175.14786604 30.22810632 178.48012224 30.96444798 181.99023438 31.91162109 C184.1715302 32.41499705 186.29381373 32.66675884 188.52148438 32.88037109 C192.14786604 33.22810632 195.48012224 33.96444798 198.99023438 34.91162109 C201.1715302 35.41499705 203.29381373 35.66675884 205.52148438 35.88037109 C209.14786604 36.22810632 212.48012224 36.96444798 215.99023438 37.91162109 C218.1715302 38.41499705 220.29381373 38.66675884 222.52148438 38.88037109 C226.14786604 39.22810632 229.48012224 39.96444798 232.99023438 40.91162109 C235.1715302 41.41499705 237.29381373 41.66675884 239.52148438 41.88037109 C242.45375172 42.16154741 245.17779833 42.61302724 248.02148438 43.38037109 C250.76878314 44.11982086 253.37558972 44.56498159 256.20898438 44.81787109 C262.27982915 45.42079746 268.11496632 46.89374183 274.02148438 48.38037109 C275.76558594 48.79609375 275.76558594 48.79609375 277.54492188 49.22021484 C296.75165146 54.15969387 308.46806035 65.04226145 318.37304688 81.64599609 C319.3748509 83.52724639 320.2218337 85.40547624 321.02148438 87.38037109 C321.31796875 88.04166016 321.61445312 88.70294922 321.91992188 89.38427734 C327.01042426 102.81106114 324.18391606 118.70209699 321.40185547 132.35888672 C320.55787577 136.84422172 320.08394154 141.38490045 319.54882812 145.91552734 C319.07065888 149.05727641 318.36339468 152.05626079 317.56323242 155.12866211 C316.47587014 159.64814941 315.74367427 164.23802704 314.95898438 168.81787109 C314.78560547 169.80335938 314.61222656 170.78884766 314.43359375 171.80419922 C313.53443351 177.00279233 312.7588747 182.17353726 312.26977539 187.42749023 C312.00973055 189.47281834 311.55891517 191.39128031 311.02148438 193.38037109 C310.25414052 196.22405714 309.8026607 198.94810375 309.52148438 201.88037109 C309.17374915 205.50675276 308.43740749 208.83900895 307.49023438 212.34912109 C306.98685841 214.53041692 306.73509663 216.65270045 306.52148438 218.88037109 C306.17374915 222.50675276 305.43740749 225.83900895 304.49023438 229.34912109 C303.98685841 231.53041692 303.73509663 233.65270045 303.52148438 235.88037109 C303.17374915 239.50675276 302.43740749 242.83900895 301.49023438 246.34912109 C300.98685841 248.53041692 300.73509663 250.65270045 300.52148438 252.88037109 C300.17374915 256.50675276 299.43740749 259.83900895 298.49023438 263.34912109 C297.98685841 265.53041692 297.73509663 267.65270045 297.52148438 269.88037109 C297.17374915 273.50675276 296.43740749 276.83900895 295.49023438 280.34912109 C294.98685841 282.53041692 294.73509663 284.65270045 294.52148438 286.88037109 C294.17374915 290.50675276 293.43740749 293.83900895 292.49023438 297.34912109 C291.98685841 299.53041692 291.73509663 301.65270045 291.52148438 303.88037109 C291.17374915 307.50675276 290.43740749 310.83900895 289.49023438 314.34912109 C288.98685841 316.53041692 288.73509663 318.65270045 288.52148438 320.88037109 C288.17374915 324.50675276 287.43740749 327.83900895 286.49023438 331.34912109 C285.98685841 333.53041692 285.73509663 335.65270045 285.52148438 337.88037109 C285.17374915 341.50675276 284.43740749 344.83900895 283.49023438 348.34912109 C282.98685841 350.53041692 282.73509663 352.65270045 282.52148438 354.88037109 C282.17374915 358.50675276 281.43740749 361.83900895 280.49023438 365.34912109 C279.98685841 367.53041692 279.73509663 369.65270045 279.52148438 371.88037109 C279.24030805 374.81263844 278.78882823 377.53668505 278.02148438 380.38037109 C277.28203461 383.12766986 276.83687388 385.73447644 276.58398438 388.56787109 C275.98105801 394.63871587 274.50811364 400.47385303 273.02148438 406.38037109 C272.74433594 407.54310547 272.4671875 408.70583984 272.18164062 409.90380859 C267.80484454 426.9225951 258.70617329 439.16013876 243.82128906 448.34619141 C218.6442807 462.81306708 188.86159822 454.89947873 162.02148438 449.38037109 C150.72088104 447.15260657 139.42451069 445.02002194 128.02148438 443.38037109 C115.35954422 441.54446263 115.35954422 441.54446263 109.15820312 439.88037109 C104.18000281 438.71545402 99.07750835 438.11412514 94.02148438 437.38037109 C81.34668417 435.54094431 81.34668417 435.54094431 76.77148438 434.31787109 C73.21409368 433.42852342 69.87445629 433.01010813 66.24023438 432.66162109 C63.42881302 432.30524374 60.78411055 431.58615911 58.05273438 430.84912109 C55.87143855 430.34574513 53.74915502 430.09398335 51.52148438 429.88037109 C47.89510271 429.53263587 44.56284651 428.79629421 41.05273438 427.84912109 C38.87143855 427.34574513 36.74915502 427.09398335 34.52148438 426.88037109 C30.89510271 426.53263587 27.56284651 425.79629421 24.05273438 424.84912109 C21.87143855 424.34574513 19.74915502 424.09398335 17.52148438 423.88037109 C13.9030187 423.53339493 10.57770944 422.80223933 7.07617188 421.85302734 C4.04526649 421.15580386 0.99909353 420.8906548 -2.09570312 420.62646484 C-3.97851562 420.38037109 -3.97851562 420.38037109 -5.97851562 419.38037109 C-8.30706188 419.03399984 -10.64166869 418.72790988 -12.97851562 418.44287109 C-19.75563032 417.58382296 -26.4166241 416.47590977 -33.06054688 414.88037109 C-39.00663949 413.46831199 -44.97117209 412.67575672 -51.03710938 411.94287109 C-54.80386705 411.40529616 -58.48957636 410.70067017 -62.21411133 409.93359375 C-65.20952804 409.33414005 -68.21221171 408.79690727 -71.22070312 408.26708984 C-72.30738281 408.07050781 -73.3940625 407.87392578 -74.51367188 407.67138672 C-76.73064074 407.27077656 -78.94942085 406.88005695 -81.16992188 406.49951172 C-93.25763371 404.27508664 -103.29990042 399.96891989 -112.97851562 392.38037109 C-114.46738281 391.21828125 -114.46738281 391.21828125 -115.98632812 390.03271484 C-126.80436138 380.44336161 -134.10223903 365.27123734 -135.25195312 350.98193359 C-135.73664701 332.00430361 -131.78797561 312.90625359 -127.97851562 294.38037109 C-125.75075111 283.07976776 -123.61816647 271.78339741 -121.97851562 260.38037109 C-120.14260716 247.71843094 -120.14260716 247.71843094 -118.47851562 241.51708984 C-117.31359855 236.53888953 -116.71226967 231.43639507 -115.97851562 226.38037109 C-114.13908884 213.70557089 -114.13908884 213.70557089 -112.91601562 209.13037109 C-112.02666795 205.5729804 -111.60825266 202.23334301 -111.25976562 198.59912109 C-110.90338827 195.78769974 -110.18430364 193.14299727 -109.44726562 190.41162109 C-108.94388966 188.23032527 -108.69212788 186.10804174 -108.47851562 183.88037109 C-108.1307804 180.25398942 -107.39443874 176.92173323 -106.44726562 173.41162109 C-105.94388966 171.23032527 -105.69212788 169.10804174 -105.47851562 166.88037109 C-105.1307804 163.25398942 -104.39443874 159.92173323 -103.44726562 156.41162109 C-102.94388966 154.23032527 -102.69212788 152.10804174 -102.47851562 149.88037109 C-102.13153946 146.26190542 -101.40038387 142.93659616 -100.45117188 139.43505859 C-99.75394839 136.40415321 -99.48879933 133.35798025 -99.22460938 130.26318359 C-98.97851562 128.38037109 -98.97851562 128.38037109 -97.97851562 126.38037109 C-97.63214437 124.05182484 -97.32605441 121.71721803 -97.04101562 119.38037109 C-96.18196749 112.6032564 -95.0740543 105.94226262 -93.47851562 99.29833984 C-92.06645652 93.35224723 -91.27390125 87.38771463 -90.54101562 81.32177734 C-90.00344069 77.55501967 -89.2988147 73.86931035 -88.53173828 70.14477539 C-87.93228458 67.14935868 -87.3950518 64.14667501 -86.86523438 61.13818359 C-86.66865234 60.05150391 -86.47207031 58.96482422 -86.26953125 57.84521484 C-85.86892109 55.62824598 -85.47820148 53.40946586 -85.09765625 51.18896484 C-82.00137214 34.36349814 -74.57798914 19.77675501 -60.79492188 9.31005859 C-56.34585689 6.26173945 -51.87533681 3.64308763 -46.97851562 1.38037109 C-46.10195312 0.96658203 -45.22539062 0.55279297 -44.32226562 0.12646484 C-30.26593067 -5.53950164 -14.41452692 -2.93642123 0 0 Z M-39.97851562 46.38037109 C-43.77403517 52.06445138 -45.00178543 57.15334786 -46.05664062 63.85693359 C-46.22887146 64.87822861 -46.40110229 65.89952362 -46.57855225 66.95176697 C-47.14083886 70.30104693 -47.68442362 73.65309195 -48.22851562 77.00537109 C-48.62148225 79.36102001 -49.01603477 81.71640487 -49.41210938 84.0715332 C-50.21938912 88.87441829 -51.021437 93.67813231 -51.8203125 98.48242188 C-53.31183955 107.41132393 -54.89395119 116.32341364 -56.49252319 125.2336731 C-57.31543215 129.82103525 -58.13304406 134.40934178 -58.95117188 138.99755859 C-59.11551224 139.91845779 -59.2798526 140.83935699 -59.44917297 141.78816223 C-60.69569534 148.77827933 -61.93113352 155.77031319 -63.16210938 162.76318359 C-63.34649063 163.81052673 -63.53087189 164.85786987 -63.72084045 165.93695068 C-64.09669929 168.07222148 -64.47253841 170.20749576 -64.84835815 172.34277344 C-67.27468945 186.1277684 -69.70505713 199.91179485 -72.19726562 213.68505859 C-72.38009598 214.69548218 -72.56292633 215.70590576 -72.751297 216.74694824 C-73.12115691 218.79033087 -73.49105541 220.83370652 -73.86099243 222.8770752 C-74.04415009 223.88878784 -74.22730774 224.90050049 -74.41601562 225.94287109 C-74.59860931 226.95136108 -74.781203 227.95985107 -74.96932983 228.99890137 C-78.57831208 248.95480054 -82.03263612 268.93644795 -85.44116211 288.92749023 C-85.83374467 291.22299493 -86.22640319 293.51848664 -86.61914062 295.81396484 C-86.80904068 296.93051956 -86.99894073 298.04707428 -87.19459534 299.19746399 C-88.19484605 305.0275005 -89.2498916 310.84143228 -90.38671875 316.64648438 C-90.73449371 318.44195457 -90.73449371 318.44195457 -91.08929443 320.2736969 C-91.52975497 322.53143431 -91.97996928 324.78730308 -92.44244385 327.04063416 C-94.31403226 336.66390381 -96.27379802 347.61576575 -90.97851562 356.38037109 C-84.71164416 363.8658009 -77.76325169 366.0011749 -68.50195312 367.45849609 C-66.96994263 367.71684235 -66.96994263 367.71684235 -65.40698242 367.98040771 C-62.0577446 368.54266874 -58.70574271 369.08624423 -55.35351562 369.63037109 C-52.99859753 370.02332857 -50.64394508 370.41788114 -48.28955078 370.81396484 C-43.48741293 371.62133554 -38.68444188 372.42344056 -33.88085938 373.22216797 C-24.93272235 374.71641637 -16.00031285 376.29568741 -7.07028198 377.894104 C-4.32389724 378.38567241 -1.57714935 378.87516771 1.16967773 379.36425781 C10.74916794 381.07153535 20.32567207 382.79498255 29.90039062 384.52880859 C34.00319097 385.27135156 38.10605739 386.01352817 42.20898438 386.75537109 C43.23439331 386.94082489 44.25980225 387.12627869 45.31628418 387.31735229 C63.89515917 390.67361456 82.49685053 393.88944685 101.10507202 397.07843018 C117.25911276 399.84844274 133.39905003 402.68191594 149.52148438 405.63037109 C151.30394295 405.95538877 153.08641347 406.28034097 154.86889648 406.60522461 C162.38875043 407.97735948 169.90699507 409.35720112 177.42111206 410.76043701 C180.53763816 411.34009973 183.65580202 411.91056026 186.77441406 412.47888184 C188.19528584 412.74001546 189.61542451 413.00518119 191.03466797 413.27502441 C207.94862678 416.78896904 207.94862678 416.78896904 224.02148438 412.38037109 C231.25443294 406.49308738 233.52170881 398.79545602 234.88085938 389.89990234 C235.10584358 388.53682449 235.10584358 388.53682449 235.33537292 387.14620972 C235.65721391 385.18770004 235.97321293 383.22822302 236.28390503 381.26791382 C236.95284195 377.04909361 237.65080326 372.83521174 238.34654236 368.6207428 C238.70713578 366.43408867 239.06622163 364.24718544 239.42384338 362.06004333 C241.17230601 351.37844591 243.05075383 340.72190141 244.95898438 330.06787109 C245.29094753 328.2072109 245.62281529 326.34653368 245.95458984 324.48583984 C247.6808866 314.81543355 249.42364266 305.14804208 251.17382812 295.48193359 C251.91509611 291.38564854 252.65594613 287.28928813 253.39648438 283.19287109 C253.67452911 281.65543747 253.67452911 281.65543747 253.95819092 280.08694458 C257.3149738 261.50528483 260.53206634 242.90091874 263.72055054 224.28973389 C266.464316 208.28273961 269.27790823 192.29161191 272.20898438 176.31787109 C274.70034411 162.70817174 277.176222 149.09596271 279.54824829 135.46487427 C279.85872756 133.6872318 280.17208703 131.91008947 280.48861694 130.1335144 C284.12204496 113.39132242 284.12204496 113.39132242 280.02148438 97.38037109 C274.12337988 90.13412842 266.4169332 87.87742182 257.50585938 86.52099609 C256.59476913 86.37105194 255.68367889 86.22110779 254.74497986 86.06661987 C252.78226253 85.74488192 250.81859021 85.42892589 248.85409546 85.1182251 C243.53193669 84.2759403 238.21686669 83.39049119 232.90039062 82.51318359 C231.81301102 82.33508148 230.72563141 82.15697937 229.6053009 81.97348022 C219.28253162 80.27729778 208.99540295 78.40760481 198.70898438 76.50537109 C181.50126606 73.33592374 164.26749514 70.33386862 147.02148438 67.38037109 C130.00509042 64.4658125 113.00084834 61.50367612 96.02148438 58.38037109 C76.34008413 54.76092555 56.62525678 51.34659551 36.90039062 47.97265625 C26.30052068 46.15854083 15.70249204 44.34179764 5.12304688 42.41162109 C4.32144135 42.2662088 3.51983582 42.12079651 2.69393921 41.97097778 C-0.8599168 41.32605551 -4.41204582 40.67399995 -7.96142578 40.00488281 C-20.1333681 37.78720355 -31.16854779 35.90365259 -39.97851562 46.38037109 Z " fill="#232323" transform="translate(205.978515625,73.61962890625)"/>
<path d="M0 0 C3.75531436 3.13935246 6.26560303 6.91582664 8.92016602 10.99145508 C10.13196309 12.7860248 11.34421555 14.58028709 12.55688477 16.37426758 C13.16580566 17.28724609 13.77472656 18.20022461 14.40209961 19.14086914 C17.2813961 23.42794116 20.25921027 27.64442344 23.23266602 31.86645508 C24.39985756 33.53275421 25.56652313 35.19942188 26.73266602 36.86645508 C27.31016602 37.69145508 27.88766602 38.51645508 28.48266602 39.36645508 C61.73266601 86.86645507 61.73266601 86.86645507 63.4831543 89.3671875 C64.64814965 91.03144336 65.81318862 92.69566869 66.97827148 94.35986328 C69.92087013 98.56316431 72.86267506 102.76701689 75.80297852 106.97192383 C76.98783264 108.66596342 78.17272822 110.35997401 79.35766602 112.05395508 C80.22512451 113.29435547 80.22512451 113.29435547 81.11010742 114.55981445 C84.41699727 119.28474193 87.73904027 123.99847622 91.07470703 128.703125 C108.51442872 153.31426911 108.51442872 153.31426911 107.23266602 163.86645508 C105.55535791 169.29027381 103.20047179 173.64536226 98.48266602 176.92895508 C92.50756691 180.07905423 86.94126875 180.61760698 80.48266602 178.67895508 C72.87942885 176.04598221 69.1203582 170.24452878 64.79516602 163.86645508 C63.54666634 162.05381852 62.29796277 160.24132238 61.04907227 158.42895508 C60.41501465 157.5034082 59.78095703 156.57786133 59.12768555 155.62426758 C56.19157953 151.3513671 53.21130189 147.10976082 50.23266602 142.86645508 C49.06575869 141.1999569 47.8990927 139.5332897 46.73266602 137.86645508 C46.15516602 137.04145508 45.57766602 136.21645508 44.98266602 135.36645508 C11.73266601 87.86645508 11.73266601 87.86645508 9.98217773 85.36572266 C8.81718238 83.7014668 7.65214342 82.03724147 6.48706055 80.37304688 C3.5444619 76.16974585 0.60265698 71.96589327 -2.33764648 67.76098633 C-3.52250061 66.06694674 -4.70739619 64.37293614 -5.89233398 62.67895508 C-6.47063965 61.85202148 -7.04894531 61.02508789 -7.64477539 60.1730957 C-10.95166524 55.44816822 -14.27370824 50.73443394 -17.609375 46.02978516 C-34.83678676 21.71825535 -34.83678676 21.71825535 -33.76733398 10.86645508 C-32.41255193 5.13609313 -30.114723 1.7204969 -25.26733398 -1.63354492 C-16.55441668 -7.00452134 -8.19256365 -5.72774006 0 0 Z " fill="#222222" transform="translate(263.767333984375,213.133544921875)"/>
</svg>